# Blender v2.80 (sub 75) OBJ File: 'map1.blend'
# www.blender.org
mtllib map1.mtl
o Plane
v 4.230769 -3.200000 6.153846
v 4.230769 -3.200000 -3.846154
v -5.769231 -3.000000 6.153847
v -5.769231 -1.000000 -3.846153
v 4.230769 5.000000 6.153846
v 4.230769 5.000000 -3.846154
v -5.769231 5.000000 6.153847
v -5.769231 5.000000 -3.846153
v -0.769230 -3.200000 6.153846
v -0.769231 -1.200000 -3.846154
v -0.769230 5.000000 6.153846
v 4.230769 -3.200000 1.153846
v -5.769231 -3.000000 1.153847
v 4.230769 5.000000 1.153846
v -5.769231 5.000000 1.153847
v -0.769231 -3.200000 1.153846
v 4.230769 -4.200000 6.153846
v 4.230769 -4.400000 -3.846154
v -0.769230 -4.200000 6.153846
v -0.769231 -4.400000 -3.846154
v 4.230769 -4.400000 1.153846
v -0.769231 -4.400000 1.153846
v 4.230769 -5.599999 -3.846154
v -0.769231 -5.599999 -3.846154
v 4.230769 -5.400000 1.153846
v -0.769231 -5.400000 1.153846
vt 1.000000 0.500000
vt 0.500000 1.000000
vt 0.500000 0.500000
vt 1.000000 0.000000
vt 0.500000 0.000000
vt 1.000000 0.000000
vt 0.500000 1.000000
vt 0.000000 1.000000
vt 0.500000 0.000000
vt 0.000000 0.500000
vt 0.000000 0.500000
vt 0.000000 0.000000
vt 0.000000 0.000000
vt 1.000000 1.000000
vt 0.000000 0.000000
vt 0.500000 0.000000
vt 0.000000 0.500000
vt 1.000000 0.500000
vt 1.000000 0.000000
vt 0.500000 0.500000
vt 0.500000 0.000000
vt 0.500000 0.500000
vt 0.000000 1.000000
vt 1.000000 0.000000
vt 1.000000 1.000000
vt 1.000000 0.500000
vn 0.0371 0.9278 0.3711
vn -1.0000 0.0000 0.0000
vn 1.0000 0.0000 0.0000
vn -0.0000 0.0000 -1.0000
vn 0.0400 0.9992 0.0000
vn 0.0000 0.9992 -0.0400
usemtl None
s off
f 10/1/1 13/2/1 16/3/1
f 18/4/2 12/5/2 2/6/2
f 15/7/3 3/8/3 13/2/3
f 14/9/2 2/6/2 12/5/2
f 3/8/4 11/10/4 9/11/4
f 11/10/4 1/12/4 9/11/4
f 5/13/2 12/5/2 1/12/2
f 4/14/3 15/7/3 13/2/3
f 12/5/2 17/15/2 1/12/2
f 9/11/5 13/2/5 3/8/5
f 21/16/6 19/17/6 17/15/6
f 16/3/3 20/18/3 10/1/3
f 17/15/4 9/11/4 1/12/4
f 19/17/3 16/3/3 9/11/3
f 23/19/6 26/20/6 25/21/6
f 26/20/3 20/18/3 22/22/3
f 18/4/2 25/21/2 21/16/2
f 25/21/4 22/22/4 21/16/4
f 10/1/1 4/14/1 13/2/1
f 18/4/2 21/16/2 12/5/2
f 15/7/3 7/23/3 3/8/3
f 14/9/2 6/24/2 2/6/2
f 3/8/4 7/23/4 11/10/4
f 11/10/4 5/13/4 1/12/4
f 5/13/2 14/9/2 12/5/2
f 4/14/3 8/25/3 15/7/3
f 12/5/2 21/16/2 17/15/2
f 9/11/5 16/3/5 13/2/5
f 21/16/6 22/22/6 19/17/6
f 16/3/3 22/22/3 20/18/3
f 17/15/4 19/17/4 9/11/4
f 19/17/3 22/22/3 16/3/3
f 23/19/6 24/26/6 26/20/6
f 26/20/3 24/26/3 20/18/3
f 18/4/2 23/19/2 25/21/2
f 25/21/4 26/20/4 22/22/4
